<?xml version="1.0" standalone="no"?>
<!DOCTYPE svg PUBLIC "-//W3C//DTD SVG 20010904//EN"
 "http://www.w3.org/TR/2001/REC-SVG-20010904/DTD/svg10.dtd">
<svg version="1.0" xmlns="http://www.w3.org/2000/svg"
 width="700.000000pt" height="700.000000pt" viewBox="0 0 700.000000 700.000000"
 preserveAspectRatio="xMidYMid meet">
<metadata>
Created by potrace 1.14, written by Peter Selinger 2001-2017
</metadata>
<g transform="translate(0.000000,700.000000) scale(0.100000,-0.100000)"
fill="#000000" stroke="none">
<path d="M1646 6757 c-31 -133 -69 -278 -83 -322 -81 -250 -233 -430 -432
-510 -58 -24 -294 -69 -463 -90 -32 -3 -58 -11 -58 -16 0 -5 52 -113 115 -240
124 -247 157 -323 204 -470 66 -211 86 -338 86 -549 -1 -253 -24 -356 -164
-733 -96 -260 -127 -355 -151 -474 -85 -410 -21 -858 178 -1258 196 -393 541
-739 937 -938 105 -52 289 -123 411 -157 59 -16 261 -61 448 -99 188 -39 374
-78 414 -87 l73 -18 143 -156 c78 -85 158 -172 177 -194 l35 -39 182 195 182
195 113 26 c61 15 235 52 385 82 424 85 561 124 775 222 397 181 740 495 957
874 235 411 313 906 216 1374 -32 152 -40 180 -141 460 -45 127 -93 266 -105
310 -67 237 -67 593 0 855 48 188 87 286 231 574 61 120 108 220 106 222 -2 2
-89 22 -193 45 -316 68 -407 109 -544 248 -141 143 -188 246 -300 652 -34 123
-63 225 -65 227 -1 1 -84 -74 -184 -168 -219 -205 -281 -257 -387 -327 -170
-110 -332 -150 -488 -120 -192 38 -340 135 -618 406 l-118 114 -136 -129
c-175 -166 -222 -206 -320 -270 -231 -152 -446 -171 -669 -60 -151 75 -268
171 -571 467 l-120 119 -58 -243z"/>
</g>
</svg>
